<?xml version="1.0" encoding="UTF-8"?>
<svg id="Close-Icon-SVG-pdj4d3w" xmlns="http://www.w3.org/2000/svg" xmlns:xlink="http://www.w3.org/1999/xlink" version="1.1" viewBox="0 0 74.3 74.3">
  <!-- Generator: Adobe Illustrator 29.2.1, SVG Export Plug-In . SVG Version: 2.1.0 Build 116)  -->
  <defs>
    <style>
      .st0 {
        fill: none;
      }

      .st1 {
        fill: #d6773c;
      }

      .st2 {
        clip-path: url(#clippath);
      }
    </style>
    <clipPath id="clippath">
      <rect class="st0" width="74.3" height="74.3"/>
    </clipPath>
  </defs>
  <g class="st2">
    <g id="Group_61468">
      <g>
        <path id="Path_134989" class="st1" d="M37.1,0C16.6,0,0,16.6,0,37.1s16.6,37.1,37.1,37.1,37.1-16.6,37.1-37.1h0C74.3,16.6,57.6,0,37.1,0s0,0,0,0M37.1,70.5c-18.5,0-33.4-15-33.4-33.4,0-18.5,15-33.4,33.4-33.4,18.5,0,33.4,15,33.4,33.4,0,18.5-15,33.4-33.4,33.4"/>
        <path id="Path_134990" class="st1" d="M51.1,20.3l-14,14-14-14-2.9,2.9,14,14-14,14,2.9,2.9,14-14,14,14,2.9-2.9-14-14,14-14-2.9-2.9Z"/>
      </g>
    </g>
    <g id="DrAqed">
      <image id="DrAqed1" data-name="DrAqed" width="204" height="140" transform="translate(91 57.7) scale(.5)" xlink:href="close-1.png"/>
    </g>
  </g>
</svg>